<?xml version="1.0" encoding="UTF-8" standalone="no"?>
<!DOCTYPE svg PUBLIC "-//W3C//DTD SVG 1.1//EN" "http://www.w3.org/Graphics/SVG/1.1/DTD/svg11.dtd">
<svg width="100%" height="100%" viewBox="0 0 1300 1395" version="1.1" xmlns="http://www.w3.org/2000/svg" xmlnsXlink="http://www.w3.org/1999/xlink" xmlSpace="preserve" xmlnsSerif="http://www.serif.com/" style="fill-rule:evenodd;clip-rule:evenodd;stroke-linejoin:round;stroke-miterlimit:2;">
    <g transform="matrix(1,0,0,1,0,-752)">
        <g opacity="0.2">
            <circle cx="640.218" cy="1453.22" r="50" style="fill:rgb(37,37,75);"/>
            <circle cx="490.218" cy="1453.22" r="50" style="fill:rgb(37,37,75);"/>
            <circle cx="190.218" cy="1453.22" r="50" style="fill:rgb(37,37,75);"/>
            <circle cx="790.218" cy="1453.22" r="50" style="fill:rgb(37,37,75);"/>
            <g transform="matrix(0.5,-0.866025,0.866025,0.5,-1463.42,891.345)">
                <circle cx="40.218" cy="1713.03" r="50" style="fill:rgb(37,37,75);"/>
            </g>
            <g transform="matrix(0.5,-0.866025,0.866025,0.5,-713.418,891.344)">
                <circle cx="415.218" cy="1063.51" r="50" style="fill:rgb(37,37,75);"/>
            </g>
            <g transform="matrix(0.5,-0.866025,0.866025,0.5,-863.414,891.342)">
                <circle cx="340.218" cy="1193.41" r="50" style="fill:rgb(37,37,75);"/>
            </g>
            <g transform="matrix(0.5,-0.866025,0.866025,0.5,-1163.42,891.344)">
                <circle cx="190.218" cy="1453.22" r="50" style="fill:rgb(37,37,75);"/>
            </g>
            <g transform="matrix(0.5,-0.866025,0.866025,0.5,-563.414,891.342)">
                <circle cx="490.218" cy="933.602" r="50" style="fill:rgb(37,37,75);"/>
            </g>
            <g transform="matrix(0.866025,-0.5,0.5,0.866025,-536.414,454.515)">
                <circle cx="579.929" cy="1228.22" r="50" style="fill:rgb(37,37,75);"/>
            </g>
            <g transform="matrix(0.866025,-0.5,0.5,0.866025,-591.318,399.611)">
                <circle cx="450.026" cy="1303.22" r="50" style="fill:rgb(37,37,75);"/>
            </g>
            <g transform="matrix(0.866025,-0.5,0.5,0.866025,-701.126,289.804)">
                <circle cx="190.218" cy="1453.22" r="50" style="fill:rgb(37,37,75);"/>
            </g>
            <g transform="matrix(0.866025,-0.5,0.5,0.866025,-481.51,509.419)">
                <circle cx="709.833" cy="1153.22" r="50" style="fill:rgb(37,37,75);"/>
            </g>
            <g transform="matrix(0.5,0.866025,-0.866025,0.5,1053.63,561.875)">
                <circle cx="40.218" cy="1193.41" r="50" style="fill:rgb(37,37,75);"/>
            </g>
            <g transform="matrix(0.5,0.866025,-0.866025,0.5,1803.63,561.876)">
                <circle cx="415.218" cy="1842.93" r="50" style="fill:rgb(37,37,75);"/>
            </g>
            <g transform="matrix(0.5,0.866025,-0.866025,0.5,1653.64,561.878)">
                <circle cx="340.218" cy="1713.03" r="50" style="fill:rgb(37,37,75);"/>
            </g>
            <g transform="matrix(0.5,0.866025,-0.866025,0.5,1353.63,561.876)">
                <circle cx="190.218" cy="1453.22" r="50" style="fill:rgb(37,37,75);"/>
            </g>
            <g transform="matrix(0.5,0.866025,-0.866025,0.5,1953.63,561.874)">
                <circle cx="490.218" cy="1972.83" r="50" style="fill:rgb(37,37,75);"/>
            </g>
            <g transform="matrix(0.866025,0.5,-0.5,0.866025,916.806,-65.1257)">
                <circle cx="579.929" cy="1678.22" r="50" style="fill:rgb(37,37,75);"/>
            </g>
            <g transform="matrix(0.866025,0.5,-0.5,0.866025,861.902,-10.2222)">
                <circle cx="450.026" cy="1603.22" r="50" style="fill:rgb(37,37,75);"/>
            </g>
            <g transform="matrix(0.866025,0.5,-0.5,0.866025,752.094,99.5856)">
                <circle cx="190.218" cy="1453.22" r="50" style="fill:rgb(37,37,75);"/>
            </g>
            <g transform="matrix(0.866025,0.5,-0.5,0.866025,971.71,-120.03)">
                <circle cx="709.833" cy="1753.22" r="50" style="fill:rgb(37,37,75);"/>
            </g>
            <g transform="matrix(-3.82857e-16,-1,1,-3.82857e-16,-1863,2243.44)">
                <circle cx="190.218" cy="2053.22" r="50" style="fill:rgb(37,37,75);"/>
            </g>
            <g transform="matrix(-3.82857e-16,-1,1,-3.82857e-16,-1563,1943.44)">
                <circle cx="190.218" cy="1753.22" r="50" style="fill:rgb(37,37,75);"/>
            </g>
            <g transform="matrix(-3.82857e-16,-1,1,-3.82857e-16,-813.002,1193.44)">
                <circle cx="190.218" cy="1003.22" r="50" style="fill:rgb(37,37,75);"/>
            </g>
            <g transform="matrix(-3.82857e-16,-1,1,-3.82857e-16,-963.002,1343.44)">
                <circle cx="190.218" cy="1153.22" r="50" style="fill:rgb(37,37,75);"/>
            </g>
            <g transform="matrix(-3.82857e-16,-1,1,-3.82857e-16,-1713,2093.44)">
                <circle cx="190.218" cy="1903.22" r="50" style="fill:rgb(37,37,75);"/>
            </g>
            <g transform="matrix(-3.82857e-16,-1,1,-3.82857e-16,-1248,1658.44)">
                <circle cx="205.218" cy="1453.22" r="65" style="fill:rgb(37,37,75);"/>
            </g>
            <g transform="matrix(-3.82857e-16,-1,1,-3.82857e-16,-663,1043.44)">
                <circle cx="190.218" cy="853.218" r="50" style="fill:rgb(37,37,75);"/>
            </g>
        </g>
    </g>
</svg>
